<svg width="49" height="24" viewBox="0 0 49 24" fill="none" xmlns="http://www.w3.org/2000/svg">
<path d="M10.7443 15.8202C10.7443 17.4761 9.40199 18.8184 7.74608 18.8184C6.09018 18.8184 4.7478 17.4761 4.7478 15.8202C4.7478 14.1644 6.09018 12.822 7.74608 12.822C9.40199 12.822 10.7443 14.1644 10.7443 15.8202Z" stroke="#292D32" stroke-width="1.1" stroke-miterlimit="10" stroke-linecap="round" stroke-linejoin="round"/>
<path d="M7.75394 15.8203H7.74597" stroke="#292D32" stroke-width="1.1" stroke-miterlimit="10" stroke-linecap="round" stroke-linejoin="round"/>
<path d="M44.4745 15.8202C44.4745 17.4761 43.1321 18.8184 41.4763 18.8184C39.8204 18.8184 38.478 17.4761 38.478 15.8202C38.478 14.1644 39.8204 12.822 41.4763 12.822C43.1321 12.822 44.4745 14.1644 44.4745 15.8202Z" stroke="#292D32" stroke-width="1.1" stroke-miterlimit="10" stroke-linecap="round" stroke-linejoin="round"/>
<path d="M41.4842 15.8203H41.4762" stroke="#292D32" stroke-width="1.1" stroke-miterlimit="10" stroke-linecap="round" stroke-linejoin="round"/>
<path d="M10.7443 16.5696H38.478" stroke="#292D32" stroke-width="1.1" stroke-miterlimit="10" stroke-linecap="round" stroke-linejoin="round"/>
<path d="M9.99503 9.82356H2.49909C1.6711 9.82356 1 10.4948 1 11.3227V15.0705C1 15.8984 1.6711 16.5696 2.49909 16.5696H4.74774" stroke="#292D32" stroke-width="1.1" stroke-miterlimit="10" stroke-linecap="round" stroke-linejoin="round"/>
<path d="M44.4745 16.5696H45.9736C46.8016 16.5696 47.4727 15.8984 47.4727 15.0705V11.3227C47.4727 10.4948 46.8016 9.82356 45.9736 9.82356H12.993" stroke="#292D32" stroke-width="1.1" stroke-miterlimit="10" stroke-linecap="round" stroke-linejoin="round"/>
<path d="M39.977 9.82349L37.6464 6.32747C37.2293 5.70191 36.5271 5.32611 35.7753 5.32611H9.69902C8.94714 5.32611 8.24509 5.70191 7.82796 6.32747L5.49731 9.82349" stroke="#292D32" stroke-width="1.1" stroke-miterlimit="10" stroke-linecap="round" stroke-linejoin="round"/>
<path d="M30.9823 9.82349V5.32611" stroke="#292D32" stroke-width="1.1" stroke-miterlimit="10" stroke-linecap="round" stroke-linejoin="round"/>
<path d="M14.4921 9.82349V5.32611" stroke="#292D32" stroke-width="1.1" stroke-miterlimit="10" stroke-linecap="round" stroke-linejoin="round"/>
<path d="M22.7372 9.82349V5.32611" stroke="#292D32" stroke-width="1.1" stroke-miterlimit="10" stroke-linecap="round" stroke-linejoin="round"/>
<path d="M12.9929 13.5715H36.2293" stroke="#292D32" stroke-width="1.1" stroke-miterlimit="10" stroke-linecap="round" stroke-linejoin="round"/>
<path d="M45.9735 12.0723H47.4726" stroke="#292D32" stroke-width="1.1" stroke-miterlimit="10" stroke-linecap="round" stroke-linejoin="round"/>
<path d="M1 12.0723H2.49909" stroke="#292D32" stroke-width="1.1" stroke-miterlimit="10" stroke-linecap="round" stroke-linejoin="round"/>
</svg>
