<svg width="24" height="24" viewBox="0 0 24 24" fill="none" xmlns="http://www.w3.org/2000/svg">
<path d="M21.5299 10.8699L20.0099 9.34988C19.7499 9.08988 19.5399 8.57988 19.5399 8.21988V6.05988C19.5399 5.17988 18.8199 4.45988 17.9399 4.45988H15.7899C15.4299 4.45988 14.9199 4.24988 14.6599 3.98988L13.1399 2.46988C12.5199 1.84988 11.4999 1.84988 10.8799 2.46988L9.33988 3.98988C9.08988 4.24988 8.57988 4.45988 8.20988 4.45988H6.05988C5.17988 4.45988 4.45988 5.17988 4.45988 6.05988V8.20988C4.45988 8.56988 4.24988 9.07988 3.98988 9.33988L2.46988 10.8599C1.84988 11.4799 1.84988 12.4999 2.46988 13.1199L3.98988 14.6399C4.24988 14.8999 4.45988 15.4099 4.45988 15.7699V17.9199C4.45988 18.7999 5.17988 19.5199 6.05988 19.5199H8.20988C8.56988 19.5199 9.07988 19.7299 9.33988 19.9899L10.8599 21.5099C11.4799 22.1299 12.4999 22.1299 13.1199 21.5099L14.6399 19.9899C14.8999 19.7299 15.4099 19.5199 15.7699 19.5199H17.9199C18.7999 19.5199 19.5199 18.7999 19.5199 17.9199V15.7699C19.5199 15.4099 19.7299 14.8999 19.9899 14.6399L21.5099 13.1199C22.1599 12.5099 22.1599 11.4899 21.5299 10.8699ZM7.99988 8.99988C7.99988 8.44988 8.44988 7.99988 8.99988 7.99988C9.54988 7.99988 9.99988 8.44988 9.99988 8.99988C9.99988 9.54988 9.55988 9.99988 8.99988 9.99988C8.44988 9.99988 7.99988 9.54988 7.99988 8.99988ZM9.52988 15.5299C9.37988 15.6799 9.18988 15.7499 8.99988 15.7499C8.80988 15.7499 8.61988 15.6799 8.46988 15.5299C8.17988 15.2399 8.17988 14.7599 8.46988 14.4699L14.4699 8.46988C14.7599 8.17988 15.2399 8.17988 15.5299 8.46988C15.8199 8.75988 15.8199 9.23988 15.5299 9.52988L9.52988 15.5299ZM14.9999 15.9999C14.4399 15.9999 13.9899 15.5499 13.9899 14.9999C13.9899 14.4499 14.4399 13.9999 14.9899 13.9999C15.5399 13.9999 15.9899 14.4499 15.9899 14.9999C15.9899 15.5499 15.5499 15.9999 14.9999 15.9999Z" fill="#292D32"/>
</svg>
