<svg width="28" height="28" viewBox="0 0 28 28" fill="none" xmlns="http://www.w3.org/2000/svg">
<g opacity="0.7">
<path d="M5.83337 11.6668H8.16671C10.5 11.6668 11.6667 10.5002 11.6667 8.16683V5.8335C11.6667 3.50016 10.5 2.3335 8.16671 2.3335H5.83337C3.50004 2.3335 2.33337 3.50016 2.33337 5.8335V8.16683C2.33337 10.5002 3.50004 11.6668 5.83337 11.6668Z" stroke="white" stroke-width="1.5" stroke-miterlimit="10" stroke-linecap="round" stroke-linejoin="round"/>
<path d="M19.8334 11.6668H22.1667C24.5 11.6668 25.6667 10.5002 25.6667 8.16683V5.8335C25.6667 3.50016 24.5 2.3335 22.1667 2.3335H19.8334C17.5 2.3335 16.3334 3.50016 16.3334 5.8335V8.16683C16.3334 10.5002 17.5 11.6668 19.8334 11.6668Z" stroke="white" stroke-width="1.5" stroke-miterlimit="10" stroke-linecap="round" stroke-linejoin="round"/>
<path d="M19.8334 25.6668H22.1667C24.5 25.6668 25.6667 24.5002 25.6667 22.1668V19.8335C25.6667 17.5002 24.5 16.3335 22.1667 16.3335H19.8334C17.5 16.3335 16.3334 17.5002 16.3334 19.8335V22.1668C16.3334 24.5002 17.5 25.6668 19.8334 25.6668Z" stroke="white" stroke-width="1.5" stroke-miterlimit="10" stroke-linecap="round" stroke-linejoin="round"/>
<path d="M5.83337 25.6668H8.16671C10.5 25.6668 11.6667 24.5002 11.6667 22.1668V19.8335C11.6667 17.5002 10.5 16.3335 8.16671 16.3335H5.83337C3.50004 16.3335 2.33337 17.5002 2.33337 19.8335V22.1668C2.33337 24.5002 3.50004 25.6668 5.83337 25.6668Z" stroke="white" stroke-width="1.5" stroke-miterlimit="10" stroke-linecap="round" stroke-linejoin="round"/>
</g>
</svg>
