<svg width="20" height="20" viewBox="0 0 20 20" fill="none" xmlns="http://www.w3.org/2000/svg">
<path d="M3 6C3 5.20435 3.31607 4.44129 3.87868 3.87868C4.44129 3.31607 5.20435 3 6 3H14C14.7956 3 15.5587 3.31607 16.1213 3.87868C16.6839 4.44129 17 5.20435 17 6V14C17 14.7956 16.6839 15.5587 16.1213 16.1213C15.5587 16.6839 14.7956 17 14 17H6C5.20435 17 4.44129 16.6839 3.87868 16.1213C3.31607 15.5587 3 14.7956 3 14V6ZM6 4.5C5.60218 4.5 5.22064 4.65804 4.93934 4.93934C4.65804 5.22064 4.5 5.60218 4.5 6V14C4.5 14.3978 4.65804 14.7794 4.93934 15.0607C5.22064 15.342 5.60218 15.5 6 15.5H14C14.3978 15.5 14.7794 15.342 15.0607 15.0607C15.342 14.7794 15.5 14.3978 15.5 14V6C15.5 5.60218 15.342 5.22064 15.0607 4.93934C14.7794 4.65804 14.3978 4.5 14 4.5H6Z" fill="black"/>
</svg>
