<svg width="24" height="24" viewBox="0 0 24 24" fill="none" xmlns="http://www.w3.org/2000/svg">
<path d="M7.47998 18.35L10.58 20.75C10.98 21.15 11.88 21.35 12.48 21.35H16.28C17.48 21.35 18.78 20.45 19.08 19.25L21.48 11.95C21.98 10.55 21.08 9.34997 19.58 9.34997H15.58C14.98 9.34997 14.48 8.84997 14.58 8.14997L15.08 4.94997C15.28 4.04997 14.68 3.04997 13.78 2.74997C12.98 2.44997 11.98 2.84997 11.58 3.44997L7.47998 9.54997" stroke="#292D32" stroke-width="1.5" stroke-miterlimit="10"/>
<path d="M2.38 18.3499V8.5499C2.38 7.1499 2.98 6.6499 4.38 6.6499H5.38C6.78 6.6499 7.38 7.1499 7.38 8.5499V18.3499C7.38 19.7499 6.78 20.2499 5.38 20.2499H4.38C2.98 20.2499 2.38 19.7499 2.38 18.3499Z" stroke="#292D32" stroke-width="1.5" stroke-linecap="round" stroke-linejoin="round"/>
</svg>
