<svg width="20" height="20" viewBox="0 0 20 20" fill="none" xmlns="http://www.w3.org/2000/svg">
<path d="M5.625 2.5C4.7962 2.5 4.00134 2.82924 3.41529 3.41529C2.82924 4.00134 2.5 4.7962 2.5 5.625V14.375C2.5 15.2038 2.82924 15.9987 3.41529 16.5847C4.00134 17.1708 4.7962 17.5 5.625 17.5H14.375C15.2038 17.5 15.9987 17.1708 16.5847 16.5847C17.1708 15.9987 17.5 15.2038 17.5 14.375V5.625C17.5 4.7962 17.1708 4.00134 16.5847 3.41529C15.9987 2.82924 15.2038 2.5 14.375 2.5H5.625ZM13.5675 8.5675L9.1925 12.9425C9.13444 13.0007 9.06547 13.0469 8.98954 13.0784C8.91361 13.1099 8.83221 13.1261 8.75 13.1261C8.66779 13.1261 8.58639 13.1099 8.51046 13.0784C8.43453 13.0469 8.36556 13.0007 8.3075 12.9425L6.4325 11.0675C6.37439 11.0094 6.32829 10.9404 6.29685 10.8645C6.2654 10.7886 6.24921 10.7072 6.24921 10.625C6.24921 10.5428 6.2654 10.4614 6.29685 10.3855C6.32829 10.3096 6.37439 10.2406 6.4325 10.1825C6.54986 10.0651 6.70903 9.99921 6.875 9.99921C6.95718 9.99921 7.03856 10.0154 7.11448 10.0468C7.1904 10.0783 7.25939 10.1244 7.3175 10.1825L8.75 11.6163L12.6825 7.6825C12.7999 7.56514 12.959 7.49921 13.125 7.49921C13.291 7.49921 13.4501 7.56514 13.5675 7.6825C13.6849 7.79986 13.7508 7.95903 13.7508 8.125C13.7508 8.29097 13.6849 8.45014 13.5675 8.5675Z" fill="black"/>
</svg>
