<svg width="24" height="24" viewBox="0 0 24 24" fill="none" xmlns="http://www.w3.org/2000/svg">
<path d="M18.4701 16.83L18.8601 19.99C18.9601 20.82 18.0701 21.4 17.3601 20.97L13.1701 18.48C12.7101 18.48 12.2601 18.45 11.8201 18.39C12.5601 17.52 13.0001 16.42 13.0001 15.23C13.0001 12.39 10.5401 10.09 7.50009 10.09C6.34009 10.09 5.2701 10.42 4.3801 11C4.3501 10.75 4.34009 10.5 4.34009 10.24C4.34009 5.68999 8.29009 2 13.1701 2C18.0501 2 22.0001 5.68999 22.0001 10.24C22.0001 12.94 20.6101 15.33 18.4701 16.83Z" stroke="#292D32" stroke-width="1.5" stroke-linecap="round" stroke-linejoin="round"/>
<path d="M13 15.23C13 16.42 12.56 17.5201 11.82 18.3901C10.83 19.5901 9.26 20.36 7.5 20.36L4.89 21.91C4.45 22.18 3.89 21.81 3.95 21.3L4.2 19.3301C2.86 18.4001 2 16.91 2 15.23C2 13.47 2.94 11.9201 4.38 11.0001C5.27 10.4201 6.34 10.0901 7.5 10.0901C10.54 10.0901 13 12.39 13 15.23Z" stroke="#292D32" stroke-width="1.5" stroke-linecap="round" stroke-linejoin="round"/>
</svg>
