<svg width="28" height="28" viewBox="0 0 28 28" fill="none" xmlns="http://www.w3.org/2000/svg">
<path d="M25.6666 7.29183V13.2418C25.6666 14.7235 25.1766 15.9718 24.3016 16.8352C23.4383 17.7102 22.7499 17.5002 22.1666 17.5002L21.5833 20.3935C21.5833 21.1868 19.2499 19.2502 18.1882 19.2151V14.4669C18.1882 12.0869 16.6016 10.5002 14.2216 10.5002H6.29991C6.13658 10.5002 5.98492 10.5119 5.83325 10.5235V7.29183C5.83325 4.31683 7.81659 2.3335 10.7916 2.3335H20.7083C23.6833 2.3335 25.6666 4.31683 25.6666 7.29183Z" stroke="white" stroke-opacity="0.8" stroke-width="1.5" stroke-miterlimit="10" stroke-linecap="round" stroke-linejoin="round"/>
<path d="M18.1882 14.4667V19.215C18.1882 19.635 18.1416 20.0316 18.0366 20.3933C17.6049 22.1083 16.1816 23.1817 14.2216 23.1817H11.0483L7.52491 25.5267C6.99991 25.8883 6.29991 25.5033 6.29991 24.8733V23.1817C5.10991 23.1817 4.11825 22.785 3.42992 22.0967C2.72992 21.3967 2.33325 20.405 2.33325 19.215V14.4667C2.33325 12.25 3.70992 10.7217 5.83325 10.5234C5.98492 10.5117 6.13658 10.5 6.29991 10.5H14.2216C16.6016 10.5 18.1882 12.0867 18.1882 14.4667Z" stroke="white" stroke-opacity="0.8" stroke-width="1.5" stroke-miterlimit="10" stroke-linecap="round" stroke-linejoin="round"/>
</svg>
