<svg width="28" height="28" viewBox="0 0 28 28" fill="none" xmlns="http://www.w3.org/2000/svg">
<path d="M14.0001 5.85205C9.29021 5.85205 5.45825 9.68405 5.45825 14.3939C5.45825 19.1041 9.29025 22.9361 14.0001 22.9361C18.7103 22.9361 22.542 19.1041 22.542 14.3939C22.542 9.68405 18.7101 5.85205 14.0001 5.85205ZM14.0001 21.388C10.1439 21.388 7.0066 18.2505 7.0066 14.3942C7.0066 10.538 10.1439 7.40071 14.0001 7.40071C17.8564 7.40071 20.9937 10.538 20.9937 14.3942C20.9937 18.2507 17.8564 21.388 14.0001 21.388Z" fill="#1E262F"/>
<path d="M16.3742 14.1359H14.3098V11.1424C14.3098 10.7147 13.9632 10.3682 13.5356 10.3682C13.1079 10.3682 12.7614 10.7147 12.7614 11.1424V14.9101C12.7614 15.3377 13.1079 15.6843 13.5356 15.6843H16.3743C16.8019 15.6843 17.1485 15.3377 17.1485 14.9101C17.1484 14.4825 16.8018 14.1359 16.3742 14.1359ZM9.61479 19.9348C9.29686 19.6486 8.8073 19.6747 8.52139 19.9924L6.1988 22.573C5.91259 22.8907 5.93867 23.3802 6.25634 23.6662C6.3982 23.7945 6.58274 23.8654 6.77403 23.8651C6.98591 23.8651 7.197 23.7787 7.34977 23.6086L9.67236 21.028C9.95853 20.7103 9.93246 20.2207 9.61479 19.9348ZM21.8016 22.5733L19.479 19.9926C19.1935 19.6747 18.7038 19.6489 18.3858 19.9351C18.0679 20.221 18.0423 20.7106 18.3283 21.0283L20.6508 23.6089C20.8034 23.7787 21.0145 23.8651 21.2263 23.8651C21.4106 23.8651 21.5959 23.7996 21.744 23.6664C22.062 23.3805 22.0875 22.8909 21.8016 22.5733ZM9.48345 4.62831C7.94512 3.12201 5.46543 3.12433 3.95602 4.634C3.20501 5.3847 2.79468 6.378 2.8001 7.43088C2.80579 8.47112 3.21817 9.44508 3.96166 10.1733C4.10626 10.3152 4.30079 10.3945 4.50333 10.3942C4.70151 10.3942 4.8997 10.3184 5.05068 10.1677L9.48936 5.72897C9.56167 5.65657 9.61892 5.57056 9.65781 5.4759C9.6967 5.38125 9.71646 5.27983 9.71594 5.17751C9.71544 5.07514 9.69464 4.97388 9.65473 4.87961C9.61482 4.78534 9.55661 4.69993 9.48345 4.62831ZM4.58824 8.44015C4.43315 8.12764 4.35029 7.78184 4.34849 7.42261C4.34513 6.78675 4.59441 6.18493 5.05068 5.72867C5.5059 5.27371 6.10772 5.04634 6.71286 5.04634C7.07124 5.04627 7.42515 5.12586 7.74899 5.27936L4.58824 8.44015ZM24.0441 4.63374C22.5345 3.12433 20.0547 3.12175 18.5164 4.62805C18.4433 4.69969 18.3851 4.78511 18.3452 4.87936C18.3053 4.97362 18.2845 5.07484 18.2839 5.1772C18.2834 5.27955 18.3032 5.38098 18.3421 5.47564C18.3811 5.57029 18.4384 5.65629 18.5107 5.72867L22.9494 10.1673C23.0212 10.2394 23.1065 10.2965 23.2004 10.3354C23.2944 10.3744 23.3951 10.3943 23.4968 10.3942C23.6994 10.3945 23.8941 10.315 24.0384 10.1728C24.7822 9.44477 25.1946 8.47086 25.2 7.43058C25.2054 6.378 24.7948 5.3847 24.0441 4.63374ZM23.4119 8.44015L20.2512 5.2794C21.1384 4.85822 22.2282 5.00767 22.9495 5.72893C23.4057 6.18519 23.655 6.78671 23.6516 7.42288C23.6498 7.78184 23.567 8.1279 23.4119 8.44015Z" fill="#1E262F"/>
</svg>
