<svg width="32" height="32" viewBox="0 0 32 32" fill="none" xmlns="http://www.w3.org/2000/svg">
<g clip-path="url(#clip0_1817_12618)">
<path d="M28.4459 10.082H11.8948C11.0862 10.082 9.7363 10.3885 9.7363 12.4688V15.6512H30.6044V12.4688C30.6044 10.3951 29.2545 10.082 28.4459 10.082Z" fill="#1E262F"/>
<path d="M5.2366 16.3421H2.08681V5.2168H0V26.7827H2.08681V21.2135H29.9132V26.7762H32V16.3421H5.2366Z" fill="#1E262F"/>
<path d="M5.56266 15.7812C7.17258 15.7812 8.47768 14.4761 8.47768 12.8662C8.47768 11.2563 7.17258 9.95117 5.56266 9.95117C3.95274 9.95117 2.64764 11.2563 2.64764 12.8662C2.64764 14.4761 3.95274 15.7812 5.56266 15.7812Z" fill="#1E262F"/>
</g>
<defs>
<clipPath id="clip0_1817_12618">
<rect width="32" height="32" fill="white"/>
</clipPath>
</defs>
</svg>
