<svg width="28" height="28" viewBox="0 0 28 28" fill="none" xmlns="http://www.w3.org/2000/svg">
<path d="M25.2001 18.0515C25.2001 21.9993 21.9995 25.1999 18.0516 25.1999C14.1037 25.1999 10.9036 21.9993 10.9036 18.0515C10.9036 17.702 10.9287 17.3585 10.977 17.023C14.1018 16.5727 16.5728 14.1017 17.0231 10.9769C17.3587 10.9285 17.7021 10.9034 18.0516 10.9034C21.9995 10.9034 25.2001 14.1036 25.2001 18.0515Z" stroke="#1E262F" stroke-width="1.6" stroke-miterlimit="10" stroke-linejoin="round"/>
<path d="M17.0965 9.94853C17.0965 10.298 17.0715 10.6414 17.0231 10.977C16.5728 14.1018 14.1018 16.5728 10.977 17.0231C10.6414 17.0715 10.298 17.0965 9.94853 17.0965C6.00065 17.0965 2.80005 13.8964 2.80005 9.94853C2.80005 6.00065 6.00065 2.80005 9.94853 2.80005C13.8964 2.80005 17.0965 6.00065 17.0965 9.94853Z" stroke="#1E262F" stroke-width="1.6" stroke-miterlimit="10" stroke-linejoin="round"/>
<path d="M6.94067 9.94844L7.94319 11.9535L12.9559 7.94336M15.1923 15.1925L20.911 20.9111M15.1923 20.9111L20.911 15.1925" stroke="#1E262F" stroke-width="1.6" stroke-miterlimit="10" stroke-linecap="round" stroke-linejoin="round"/>
</svg>
