<svg width="28" height="28" viewBox="0 0 28 28" fill="none" xmlns="http://www.w3.org/2000/svg">
<path d="M2.33301 25.6666H25.6663" stroke="#1E262F" stroke-width="1.5" stroke-miterlimit="10" stroke-linecap="round" stroke-linejoin="round"/>
<path d="M3.44141 25.6666L3.49974 11.6316C3.49974 10.9199 3.83807 10.2433 4.39807 9.80001L12.5647 3.44166C13.4047 2.78833 14.5831 2.78833 15.4347 3.44166L23.6014 9.78833C24.1731 10.2317 24.4997 10.9083 24.4997 11.6316V25.6666" stroke="#1E262F" stroke-width="1.5" stroke-miterlimit="10" stroke-linejoin="round"/>
<path d="M15.1663 19.8334H12.833C11.8647 19.8334 11.083 20.615 11.083 21.5834V25.6667H16.9163V21.5834C16.9163 20.615 16.1347 19.8334 15.1663 19.8334Z" stroke="#1E262F" stroke-width="1.5" stroke-miterlimit="10" stroke-linejoin="round"/>
<path d="M11.083 16.0417H8.74967C8.10801 16.0417 7.58301 15.5167 7.58301 14.875V13.125C7.58301 12.4834 8.10801 11.9584 8.74967 11.9584H11.083C11.7247 11.9584 12.2497 12.4834 12.2497 13.125V14.875C12.2497 15.5167 11.7247 16.0417 11.083 16.0417Z" stroke="#1E262F" stroke-width="1.5" stroke-miterlimit="10" stroke-linejoin="round"/>
<path d="M19.25 16.0417H16.9167C16.275 16.0417 15.75 15.5167 15.75 14.875V13.125C15.75 12.4834 16.275 11.9584 16.9167 11.9584H19.25C19.8917 11.9584 20.4167 12.4834 20.4167 13.125V14.875C20.4167 15.5167 19.8917 16.0417 19.25 16.0417Z" stroke="#1E262F" stroke-width="1.5" stroke-miterlimit="10" stroke-linejoin="round"/>
<path d="M22.1664 8.16663L22.1314 4.66663H16.998" stroke="#1E262F" stroke-width="1.5" stroke-miterlimit="10" stroke-linecap="round" stroke-linejoin="round"/>
</svg>
