<svg width="24" height="24" viewBox="0 0 24 24" fill="none" xmlns="http://www.w3.org/2000/svg">
<path d="M16.42 7.95109C18.86 10.3911 18.86 14.3511 16.42 16.7911C13.98 19.2311 10.02 19.2311 7.58 16.7911C5.14 14.3511 5.14 10.3911 7.58 7.95109C10.02 5.51109 13.98 5.51109 16.42 7.95109Z" stroke="#282C2E" stroke-width="1.5" stroke-linecap="round" stroke-linejoin="round"/>
<path d="M8.24999 21.6409C6.24999 20.8409 4.49999 19.3909 3.33999 17.3809C2.19999 15.4109 1.81999 13.2209 2.08999 11.1309" stroke="#282C2E" stroke-width="1.5" stroke-linecap="round" stroke-linejoin="round"/>
<path d="M5.84961 4.48035C7.54961 3.15035 9.6796 2.36035 11.9996 2.36035C14.2696 2.36035 16.3596 3.13034 18.0396 4.41034" stroke="#282C2E" stroke-width="1.5" stroke-linecap="round" stroke-linejoin="round"/>
<path d="M15.75 21.6409C17.75 20.8409 19.5 19.3909 20.66 17.3809C21.8 15.4109 22.18 13.2209 21.91 11.1309" stroke="#282C2E" stroke-width="1.5" stroke-linecap="round" stroke-linejoin="round"/>
</svg>
