<svg width="28" height="28" viewBox="0 0 28 28" fill="none" xmlns="http://www.w3.org/2000/svg">
<path d="M25.0265 19.2215C25.0706 15.3328 23.1129 11.7182 19.7613 9.6707C18.621 8.97455 17.3862 8.52567 16.1246 8.27682C16.2726 7.96812 16.3624 7.62635 16.3624 7.26252C16.3624 5.96 15.3024 4.90002 13.9999 4.90002C12.6974 4.90002 11.6374 5.96 11.6374 7.26252C11.6374 7.62635 11.7272 7.96812 11.8752 8.27682C10.6137 8.52567 9.37885 8.97297 8.23855 9.66912C4.88695 11.7166 2.92923 15.3312 2.97333 19.2199C2.05983 19.5475 1.3999 20.4122 1.3999 21.4375C1.3999 22.74 2.45988 23.8 3.7624 23.8H24.2374C25.5399 23.8 26.5999 22.74 26.5999 21.4375C26.5999 20.4122 25.94 19.5475 25.0265 19.2215ZM13.9999 6.47502C14.433 6.47502 14.7874 6.8294 14.7874 7.26252C14.7874 7.68777 14.4472 8.03112 14.0251 8.0453H13.9747C13.5526 8.03112 13.2124 7.68777 13.2124 7.26252C13.2124 6.8294 13.5668 6.47502 13.9999 6.47502ZM9.05913 11.0142C10.5711 10.0912 12.2643 9.62817 13.959 9.62187C13.9731 9.6203 13.9857 9.62502 13.9999 9.62502C14.0141 9.62502 14.0267 9.62187 14.0409 9.6203C15.7356 9.62817 17.4287 10.0896 18.9391 11.0126C21.7773 12.7467 23.4499 15.7896 23.4546 19.075H4.54518C4.5499 15.7896 6.22255 12.7467 9.05913 11.0142ZM24.2374 22.225H3.7624C3.32928 22.225 2.9749 21.8706 2.9749 21.4375C2.9749 21.0044 3.32928 20.65 3.7624 20.65H24.2374C24.6705 20.65 25.0249 21.0044 25.0249 21.4375C25.0249 21.8706 24.6705 22.225 24.2374 22.225Z" fill="#1E262F"/>
<path d="M19.8636 13.8193C18.3705 12.1545 16.2348 11.2001 13.9999 11.2001C13.5652 11.2001 13.2124 11.5529 13.2124 11.9876C13.2124 12.4223 13.5652 12.7751 13.9999 12.7751C15.7875 12.7751 17.498 13.5389 18.6918 14.8714C18.7656 14.9538 18.8559 15.0196 18.9569 15.0647C19.0578 15.1097 19.1672 15.133 19.2777 15.1328C19.472 15.1331 19.6594 15.0613 19.8038 14.9312C20.1267 14.6399 20.155 14.1437 19.8636 13.8193Z" fill="#1E262F"/>
</svg>
