<svg width="28" height="28" viewBox="0 0 28 28" fill="none" xmlns="http://www.w3.org/2000/svg">
<path d="M16.7803 11.6265L16.7804 11.6265C17.5829 10.8239 17.9814 9.86193 17.9814 8.72779C17.9814 7.59416 17.583 6.63204 16.7803 5.82912C16.7802 5.82907 16.7802 5.82903 16.7802 5.82898M16.7803 11.6265L16.7802 5.82898M16.7803 11.6265C15.9778 12.4292 15.0155 12.8277 13.8815 12.8277C12.7479 12.8277 11.7856 12.4292 10.9828 11.6266L16.7803 11.6265ZM16.7802 5.82898C15.9774 5.02657 15.0152 4.62813 13.8815 4.62813C12.7473 4.62813 11.7852 5.02662 10.9827 5.82917C10.1801 6.63181 9.78149 7.59401 9.78149 8.72779C9.78149 9.86186 10.1801 10.824 10.9828 11.6266L16.7802 5.82898ZM21.2122 17.1375L21.2121 17.1372C21.0981 16.781 20.942 16.426 20.7474 16.0835L21.2122 17.1375ZM21.2122 17.1375C21.3275 17.4974 21.4257 17.8976 21.5028 18.327L21.2122 17.1375ZM21.657 19.5273L21.657 19.5267C21.6318 19.1636 21.5803 18.7601 21.5028 18.3272L21.657 19.5273ZM21.657 19.5273C21.6828 19.895 21.696 20.2806 21.6962 20.673L21.657 19.5273ZM20.0887 15.2222L20.0885 15.2221C19.8543 14.9979 19.5576 14.808 19.1965 14.6648L20.0887 15.2222ZM20.0887 15.2222C20.3289 15.4519 20.552 15.7398 20.7473 16.0834L20.0887 15.2222ZM16.8259 15.202L16.8255 15.2023C16.4813 15.4216 16.051 15.6058 15.5684 15.7617C15.5683 15.7618 15.5681 15.7618 15.568 15.7618L16.8259 15.202ZM16.8259 15.202C17.1053 15.0237 17.3839 14.8441 17.6617 14.6632C17.8445 14.5442 17.9446 14.4906 18.0033 14.4657C18.0169 14.4599 18.0259 14.4567 18.031 14.4551M16.8259 15.202L18.031 14.4551M11.1934 15.2022L11.1929 15.2019C10.8826 15.0037 10.6013 14.8223 10.3566 14.6629L10.3564 14.6628C10.174 14.5439 10.074 14.4904 10.0154 14.4655C10.0017 14.4597 9.99283 14.4565 9.98768 14.4549C9.55305 14.4559 9.16325 14.53 8.82278 14.6649L8.82261 14.6649C8.4618 14.8078 8.16486 14.9977 7.93016 15.2222C7.68972 15.4525 7.46659 15.7403 7.27187 16.0832L7.27184 16.0832C7.07726 16.4258 6.9211 16.7808 6.80691 17.1374C6.69169 17.4976 6.59345 17.8977 6.51637 18.3272L11.1934 15.2022ZM11.1934 15.2022C11.5375 15.4218 11.9681 15.606 12.4502 15.7618L11.1934 15.2022ZM6.32344 20.6726L6.32344 20.6731C6.32344 21.553 6.59613 22.19 7.07822 22.6493C7.56254 23.1102 8.22304 23.3719 9.11202 23.3719H18.9076C19.7966 23.3719 20.4568 23.1103 20.9413 22.6493L20.9413 22.6493C21.4233 22.1907 21.6961 21.5538 21.6962 20.6733L6.32344 20.6726ZM6.32344 20.6726C6.32319 20.2903 6.33612 19.9081 6.3622 19.5267L6.32344 20.6726ZM18.031 14.4551C18.4654 14.4561 18.8553 14.53 19.1959 14.6646L18.031 14.4551ZM9.98206 14.4533C9.98202 14.4533 9.9826 14.4534 9.98389 14.4537L9.98206 14.4533ZM18.0348 14.4539C18.0359 14.4536 18.0365 14.4535 18.0366 14.4535L18.0348 14.4539Z" stroke="#1E262F" stroke-width="1.6"/>
</svg>
