<svg width="28" height="28" viewBox="0 0 28 28" fill="none" xmlns="http://www.w3.org/2000/svg">
<path d="M18.2516 14.5806C17.1176 12.8116 15.1863 11.7553 13.0853 11.7553C10.9845 11.7553 9.05303 12.8116 7.91928 14.5806L5.18686 18.8432C4.73356 19.5505 4.52438 20.3675 4.58182 21.2055C4.63931 22.0437 4.95829 22.8243 5.50413 23.4632C6.05031 24.1019 6.77205 24.5383 7.59129 24.7256C8.41049 24.9126 9.2503 24.8329 10.0197 24.4947L10.0699 24.4724C12.0062 23.6378 14.2193 23.6453 16.1507 24.4947C16.6488 24.7137 17.1766 24.8244 17.7092 24.8244C17.9987 24.8244 18.29 24.7916 18.5786 24.7258C19.3978 24.5387 20.1195 24.1023 20.6659 23.4636C21.212 22.8249 21.5311 22.0441 21.5888 21.2059C21.6465 20.3675 21.4373 19.5505 20.9839 18.843L18.2516 14.5806ZM19.5433 22.5034C18.8483 23.3159 17.724 23.5728 16.7454 23.1425C15.5822 22.6309 14.3337 22.3752 13.0847 22.3752C11.837 22.3752 10.5886 22.6307 9.42621 23.1418L9.39314 23.1564C8.42205 23.5671 7.31424 23.3069 6.6269 22.5034C5.93267 21.6907 5.85368 20.5403 6.43042 19.6403L9.16304 15.3777C10.024 14.0345 11.4901 13.2327 13.0853 13.2327C14.6805 13.2327 16.1469 14.0346 17.008 15.3777L19.7402 19.6401C20.3172 20.5405 20.238 21.6911 19.5433 22.5034H19.5433ZM5.92288 14.575C6.73572 14.2628 7.35327 13.6078 7.66187 12.7305C7.95521 11.8957 7.9312 10.9532 7.5938 10.0765C7.25616 9.20044 6.64211 8.48519 5.86475 8.06241C5.04787 7.61845 4.15061 7.5462 3.33905 7.85899C1.70642 8.48672 0.957163 10.5043 1.66906 12.3575C2.23778 13.8325 3.56422 14.7636 4.90519 14.7636C5.25315 14.7641 5.59818 14.7001 5.92288 14.575ZM3.04763 11.8268C2.62809 10.7348 2.99663 9.57317 3.86972 9.2375C4.02754 9.17695 4.19519 9.14611 4.36422 9.14654C4.62685 9.14654 4.8981 9.21826 5.1592 9.36035C5.6287 9.6155 6.00379 10.0585 6.21529 10.6074C6.42658 11.1566 6.44543 11.7365 6.26815 12.2404C6.10573 12.7022 5.79481 13.0417 5.39299 13.1962L5.3922 13.1965C4.5203 13.5326 3.46844 12.9179 3.04763 11.8268ZM11.2246 11.2355C13.2657 11.2355 14.9262 9.34362 14.9262 7.01823C14.9262 4.69226 13.2657 2.80005 11.2246 2.80005C9.18376 2.80005 7.52342 4.69226 7.52342 7.01823C7.52342 9.34362 9.18371 11.2355 11.2246 11.2355ZM11.2246 4.2772C12.451 4.2772 13.4491 5.50688 13.4491 7.01823C13.4491 8.529 12.451 9.75833 11.2246 9.75833C9.99818 9.75833 9.00057 8.529 9.00057 7.01823C9.00057 5.50688 9.99823 4.2772 11.2246 4.2772ZM17.6173 12.2716H17.6175C17.9249 12.3737 18.2467 12.4257 18.5707 12.4255C20.0592 12.4255 21.5098 11.3422 22.0633 9.67717C22.3821 8.71879 22.3611 7.70537 22.0042 6.82387C21.6309 5.90122 20.9389 5.23135 20.0557 4.93761C19.1725 4.64422 18.2168 4.76648 17.3652 5.28214C16.5518 5.77487 15.9285 6.57394 15.6103 7.53232C14.9383 9.55417 15.8387 11.6802 17.6173 12.2716ZM17.0121 7.99813C17.2199 7.37231 17.6171 6.8567 18.1307 6.54564C18.6057 6.2578 19.1241 6.18457 19.5899 6.33931C20.0556 6.4943 20.4266 6.863 20.6351 7.37792C20.8602 7.93429 20.8698 8.5853 20.6616 9.21112C20.2465 10.46 19.0898 11.2041 18.0834 10.8697C17.0776 10.5352 16.597 9.24705 17.0121 7.99813ZM25.4125 11.7794L25.4119 11.7788C24.0044 10.7391 21.8993 11.1897 20.719 12.7839C19.5399 14.3789 19.7243 16.5232 21.1297 17.5637C21.6422 17.9434 22.2479 18.1249 22.8677 18.1249C23.9481 18.1249 25.072 17.5735 25.8231 16.5596C27.0023 14.9645 26.8181 12.8203 25.4125 11.7793V11.7794ZM24.6359 15.6807C23.939 16.6214 22.7606 16.9335 22.0087 16.3765C21.2573 15.8203 21.2116 14.6025 21.9066 13.6624C22.3686 13.0383 23.0434 12.6911 23.6654 12.6911C23.9799 12.6911 24.281 12.7799 24.534 12.9669C25.2848 13.5238 25.3304 14.7411 24.6359 15.6807H24.6359Z" fill="#1E262F"/>
</svg>
