<svg width="26" height="26" viewBox="0 0 26 26" fill="none" xmlns="http://www.w3.org/2000/svg">
<path d="M13.1738 11.7762C13.0654 11.7653 12.9354 11.7653 12.8163 11.7762C10.2379 11.6895 8.19043 9.57699 8.19043 6.97699C8.19043 4.32283 10.3354 2.16699 13.0004 2.16699C15.6546 2.16699 17.8104 4.32283 17.8104 6.97699C17.7996 9.57699 15.7521 11.6895 13.1738 11.7762Z" stroke="white" stroke-width="1.5" stroke-linecap="round" stroke-linejoin="round"/>
<path d="M7.75629 15.773C5.13462 17.528 5.13462 20.388 7.75629 22.1322C10.7355 24.1255 15.6213 24.1255 18.6005 22.1322C21.2221 20.3772 21.2221 17.5172 18.6005 15.773C15.6321 13.7905 10.7463 13.7905 7.75629 15.773Z" stroke="white" stroke-width="1.5" stroke-linecap="round" stroke-linejoin="round"/>
</svg>
