<svg width="40" height="40" viewBox="0 0 40 40" fill="none" xmlns="http://www.w3.org/2000/svg">
<path d="M7.29389 19.6777C9.48833 20.5466 11.7534 21.225 14.0642 21.7056C14.151 21.7085 14.237 21.6878 14.3129 21.6456C14.3889 21.6034 14.4519 21.5413 14.4953 21.4661C15.0255 20.6374 15.7514 19.952 16.6091 19.4702C17.4668 18.9885 18.4299 18.7252 19.4133 18.7037C20.3991 18.725 21.3645 18.988 22.2248 19.4697C23.0851 19.9513 23.8139 20.6369 24.3473 21.4661C24.3887 21.5431 24.4514 21.6066 24.5278 21.649C24.6042 21.6915 24.6912 21.7111 24.7785 21.7056C27.0817 21.223 29.3409 20.5501 31.5328 19.6937C32.2013 19.4301 32.7743 18.9701 33.1762 18.3743C33.5781 17.7786 33.7901 17.075 33.7842 16.3564V14.8235C33.8771 14.1728 33.8172 13.5095 33.6093 12.8859C33.4014 12.2624 33.0512 11.6958 32.5864 11.2311C32.1216 10.7663 31.5551 10.4161 30.9315 10.2082C30.308 10.0003 29.6446 9.9404 28.9939 10.0332H26.998V7.63809C26.9946 6.89802 26.6991 6.18922 26.1758 5.66591C25.6525 5.14259 24.9437 4.84711 24.2036 4.84375H14.623C13.8822 4.8446 13.1719 5.13927 12.6481 5.66313C12.1242 6.18698 11.8296 6.89724 11.8287 7.63809V10.0332H9.83275C9.18206 9.9404 8.5187 10.0003 7.89516 10.2082C7.27163 10.4161 6.70506 10.7663 6.24029 11.2311C5.77553 11.6958 5.42533 12.2624 5.21742 12.8859C5.00952 13.5095 4.94962 14.1728 5.04246 14.8235V16.3564C5.03376 17.0737 5.24484 17.7764 5.64733 18.3701C6.04981 18.9639 6.62441 19.4202 7.29389 19.6777ZM14.2239 7.63809C14.2234 7.58555 14.2335 7.53345 14.2534 7.48482C14.2733 7.4362 14.3027 7.39202 14.3398 7.35487C14.377 7.31772 14.4212 7.28833 14.4698 7.26842C14.5184 7.24851 14.5705 7.23847 14.623 7.2389H24.2036C24.2562 7.23847 24.3083 7.24851 24.3569 7.26842C24.4055 7.28833 24.4497 7.31772 24.4869 7.35487C24.524 7.39202 24.5534 7.4362 24.5733 7.48482C24.5932 7.53345 24.6033 7.58555 24.6028 7.63809V10.0332H14.2239V7.63809ZM24.2036 32.388C24.2036 30.2705 25.0448 28.2398 26.542 26.7425C28.0393 25.2453 30.07 24.4041 32.1875 24.4041C32.5021 24.4038 32.8166 24.4197 33.1296 24.452C33.1979 24.4653 33.2676 24.4706 33.3371 24.468C33.3975 24.469 33.4574 24.4575 33.5131 24.4344C33.5688 24.4112 33.6192 24.3769 33.6611 24.3335C33.7031 24.2901 33.7356 24.2385 33.7568 24.182C33.778 24.1255 33.7873 24.0652 33.7842 24.0049V21.1467C33.3655 21.4666 32.9031 21.7247 32.411 21.9132C30.0935 22.8339 27.6999 23.5498 25.2575 24.0528C25.0783 24.0846 24.8966 24.1007 24.7146 24.1007C24.2433 24.0943 23.7809 23.9714 23.3685 23.7429C22.9562 23.5145 22.6068 23.1876 22.3514 22.7914C22.0381 22.2899 21.6062 21.8732 21.0939 21.578C20.5815 21.2828 20.0043 21.1183 19.4133 21.0988C18.825 21.1204 18.2509 21.286 17.7415 21.5811C17.232 21.8762 16.8027 22.2918 16.4913 22.7914C16.1866 23.2662 15.7476 23.6397 15.2301 23.8643C14.7126 24.0889 14.14 24.1545 13.5852 24.0528C11.137 23.5521 8.73785 22.8361 6.41567 21.9132C5.92003 21.7254 5.45671 21.4614 5.04246 21.1308V29.1944C4.94962 29.8451 5.00952 30.5085 5.21742 31.132C5.42533 31.7555 5.77553 32.3221 6.24029 32.7869C6.70506 33.2517 7.27163 33.6019 7.89516 33.8098C8.5187 34.0177 9.18206 34.0776 9.83275 33.9847H23.8044C23.8647 33.9878 23.925 33.9785 23.9815 33.9573C24.038 33.9361 24.0896 33.9036 24.133 33.8616C24.1764 33.8197 24.2107 33.7693 24.2339 33.7136C24.257 33.6579 24.2685 33.598 24.2675 33.5376C24.2696 33.4628 24.2643 33.3879 24.2515 33.3141C24.2197 33.0064 24.2037 32.6973 24.2036 32.388ZM19.4133 26.0009C18.9899 26.0026 18.583 25.836 18.2824 25.5377C17.9817 25.2395 17.8119 24.834 17.8102 24.4105C17.8085 23.987 17.9751 23.5802 18.2734 23.2796C18.5716 22.9789 18.9771 22.8091 19.4006 22.8074H19.4133C19.8368 22.8074 20.243 22.9756 20.5424 23.275C20.8419 23.5745 21.0101 23.9806 21.0101 24.4041C21.0101 24.8276 20.8419 25.2338 20.5424 25.5332C20.243 25.8327 19.8368 26.0009 19.4133 26.0009ZM34.9786 30.7912C34.9786 31.1088 34.8524 31.4134 34.6279 31.638C34.4033 31.8626 34.0987 31.9888 33.781 31.9888H31.7883V33.9847C31.7883 34.3023 31.6621 34.607 31.4375 34.8315C31.2129 35.0561 30.9083 35.1823 30.5907 35.1823C30.2731 35.1823 29.9685 35.0561 29.7439 34.8315C29.5193 34.607 29.3931 34.3023 29.3931 33.9847V31.9888H27.3972C27.0796 31.9888 26.7749 31.8626 26.5504 31.638C26.3258 31.4134 26.1996 31.1088 26.1996 30.7912C26.1996 30.4736 26.3258 30.169 26.5504 29.9444C26.7749 29.7198 27.0796 29.5936 27.3972 29.5936H29.3931V27.5977C29.3931 27.28 29.5193 26.9754 29.7439 26.7509C29.9685 26.5263 30.2731 26.4001 30.5907 26.4001C30.9083 26.4001 31.2129 26.5263 31.4375 26.7509C31.6621 26.9754 31.7883 27.28 31.7883 27.5977V29.5936H33.7842C34.1018 29.5936 34.4065 29.7198 34.631 29.9444C34.8556 30.169 34.9818 30.4736 34.9818 30.7912H34.9786Z" fill="#1E262F"/>
</svg>
