<svg width="40" height="40" viewBox="0 0 40 40" fill="none" xmlns="http://www.w3.org/2000/svg">
<path d="M19.8307 19.4682C21.7539 19.4682 23.4193 18.7784 24.7801 17.4174C26.1408 16.0567 26.8306 14.3917 26.8306 12.4683C26.8306 10.5454 26.1408 8.88027 24.7798 7.51906C23.4188 6.15852 21.7537 5.46875 19.8307 5.46875C17.9072 5.46875 16.2422 6.15852 14.8815 7.51929C13.5208 8.88005 12.8307 10.5452 12.8307 12.4683C12.8307 14.3917 13.5207 16.0569 14.8817 17.4177C16.2427 18.7782 17.9079 19.4682 19.8307 19.4682ZM32.0787 27.8162C32.0394 27.25 31.96 26.6322 31.8432 25.9799C31.7252 25.3227 31.5734 24.7014 31.3915 24.1335C31.2037 23.5466 30.9483 22.9671 30.6326 22.4116C30.3048 21.8351 29.9199 21.3331 29.488 20.9201C29.0363 20.4879 28.4833 20.1405 27.8439 19.887C27.2067 19.635 26.5004 19.5072 25.745 19.5072C25.4483 19.5072 25.1614 19.6289 24.6073 19.9897C24.2135 20.2462 23.8184 20.5009 23.4222 20.7537C23.0415 20.9963 22.5258 21.2236 21.8887 21.4294C21.2672 21.6305 20.6362 21.7325 20.0133 21.7325C19.3905 21.7325 18.7597 21.6305 18.1375 21.4294C17.5012 21.2238 16.9855 20.9966 16.6052 20.754C16.1641 20.4721 15.7651 20.215 15.4189 19.9894C14.8655 19.6287 14.5784 19.507 14.2817 19.507C13.526 19.507 12.8201 19.6349 12.183 19.8873C11.544 20.1403 10.9908 20.4877 10.5387 20.9203C10.107 21.3336 9.72189 21.8353 9.3946 22.4116C9.07912 22.967 8.82369 23.5464 8.63563 24.1338C8.454 24.7016 8.30216 25.3227 8.1842 25.9799C8.06733 26.6313 7.98798 27.2493 7.9487 27.8169C7.90962 28.3881 7.89026 28.9605 7.89063 29.533C7.89063 31.0501 8.37288 32.2782 9.32388 33.184C10.2631 34.0778 11.5059 34.5312 13.0172 34.5312H27.0109C28.5222 34.5312 29.7645 34.0781 30.7039 33.1841C31.6552 32.2789 32.1374 31.0506 32.1374 29.5328C32.1372 28.9473 32.1175 28.3696 32.0787 27.8162Z" fill="#1E262F"/>
</svg>
