<svg width="40" height="40" viewBox="0 0 40 40" fill="none" xmlns="http://www.w3.org/2000/svg">
<path d="M31.2117 8.48836V32.7906C31.2116 32.9651 31.164 33.1363 31.0738 33.2857C30.9837 33.4351 30.8545 33.5571 30.7001 33.6385C30.5458 33.72 30.3722 33.7578 30.1979 33.7479C30.0237 33.738 29.8555 33.6807 29.7114 33.5823L26.5201 31.4041L23.5028 33.5695C23.3271 33.6961 23.1137 33.7593 22.8973 33.7489C22.681 33.7384 22.4747 33.6549 22.312 33.5119L20.0199 31.5077L17.7278 33.5119C17.5652 33.6549 17.3588 33.7384 17.1425 33.7489C16.9262 33.7593 16.7127 33.6961 16.537 33.5695L13.5197 31.4041L10.3285 33.5823C10.1844 33.6807 10.0161 33.738 9.84191 33.7479C9.66768 33.7578 9.49405 33.72 9.33971 33.6385C9.18537 33.5571 9.05617 33.4351 8.96603 33.2857C8.87588 33.1363 8.8282 32.9651 8.82812 32.7906V8.48836C8.82812 7.25279 9.82963 6.25 11.0665 6.25H28.9734C30.2102 6.25 31.2117 7.25279 31.2117 8.48836ZM14.9037 18.4011H25.1362C25.3906 18.4011 25.6346 18.3 25.8145 18.1201C25.9944 17.9402 26.0955 17.6962 26.0955 17.4418C26.0955 17.1874 25.9944 16.9434 25.8145 16.7635C25.6346 16.5836 25.3906 16.4825 25.1362 16.4825H14.9037C14.6493 16.4825 14.4053 16.5836 14.2253 16.7635C14.0454 16.9434 13.9444 17.1874 13.9444 17.4418C13.9444 17.6962 14.0454 17.9402 14.2253 18.1201C14.4053 18.3 14.6493 18.4011 14.9037 18.4011ZM14.9037 13.2848H25.1362C25.3906 13.2848 25.6346 13.1838 25.8145 13.0039C25.9944 12.824 26.0955 12.58 26.0955 12.3255C26.0955 12.0711 25.9944 11.8271 25.8145 11.6472C25.6346 11.4673 25.3906 11.3663 25.1362 11.3663H14.9037C14.6493 11.3663 14.4053 11.4673 14.2253 11.6472C14.0454 11.8271 13.9444 12.0711 13.9444 12.3255C13.9444 12.58 14.0454 12.824 14.2253 13.0039C14.4053 13.1838 14.6493 13.2848 14.9037 13.2848ZM14.9037 23.5174H20.0199C20.2743 23.5174 20.5183 23.4163 20.6982 23.2364C20.8782 23.0565 20.9792 22.8125 20.9792 22.5581C20.9792 22.3036 20.8782 22.0596 20.6982 21.8797C20.5183 21.6998 20.2743 21.5988 20.0199 21.5988H14.9037C14.6493 21.5988 14.4053 21.6998 14.2253 21.8797C14.0454 22.0596 13.9444 22.3036 13.9444 22.5581C13.9444 22.8125 14.0454 23.0565 14.2253 23.2364C14.4053 23.4163 14.6493 23.5174 14.9037 23.5174Z" fill="#1E262F"/>
</svg>
