<svg width="40" height="40" viewBox="0 0 40 40" fill="none" xmlns="http://www.w3.org/2000/svg">
<path d="M28.2248 5.45459H11.4047C7.62247 5.45459 4.54541 8.53166 4.54541 12.3139V20.6643C4.54541 24.1434 7.14883 27.0258 10.51 27.4654V33.5374C10.51 33.6549 10.5331 33.7712 10.578 33.8798C10.623 33.9883 10.6889 34.087 10.7719 34.17C10.855 34.2531 10.9536 34.319 11.0621 34.364C11.1707 34.409 11.287 34.4321 11.4045 34.4321C11.6373 34.4321 11.8662 34.3412 12.0373 34.17L18.6838 27.5235H28.2248C32.007 27.5235 35.084 24.4465 35.084 20.6643V12.3139C35.084 8.53166 32.007 5.45459 28.2248 5.45459ZM12.6573 18.6462C11.669 18.6462 10.8679 17.8451 10.8679 16.8568C10.8679 15.8686 11.6691 15.0675 12.6573 15.0675C13.6455 15.0675 14.4467 15.8686 14.4467 16.8568C14.4467 17.845 13.6456 18.6462 12.6573 18.6462ZM19.8148 18.6462C18.8265 18.6462 18.0254 17.8451 18.0254 16.8568C18.0254 15.8686 18.8265 15.0675 19.8148 15.0675C20.803 15.0675 21.6042 15.8686 21.6042 16.8568C21.6042 17.845 20.803 18.6462 19.8148 18.6462ZM26.9723 18.6462C25.9841 18.6462 25.1829 17.8451 25.1829 16.8568C25.1829 15.8686 25.9841 15.0675 26.9723 15.0675C27.9605 15.0675 28.7616 15.8686 28.7616 16.8568C28.7616 17.845 27.9605 18.6462 26.9723 18.6462Z" fill="#1E262F"/>
</svg>
