<svg width="40" height="40" viewBox="0 0 40 40" fill="none" xmlns="http://www.w3.org/2000/svg">
<path d="M20 33.946C19.8482 33.946 19.6965 33.9068 19.5606 33.8283C19.4129 33.7431 15.9049 31.7062 12.3465 28.6372C10.2375 26.8183 8.55397 25.0142 7.34284 23.2752C5.77558 21.0248 4.98744 18.8603 5.00015 16.8415C5.01503 14.4925 5.85638 12.2834 7.36938 10.6211C8.90793 8.93082 10.9612 8 13.151 8C15.9574 8 18.5233 9.57206 20 12.0624C21.4768 9.57212 24.0426 8 26.8491 8C28.9179 8 30.8918 8.83988 32.4072 10.365C34.0703 12.0386 35.0153 14.4033 34.9998 16.8527C34.987 18.8679 34.1841 21.0292 32.6134 23.2764C31.3985 25.0146 29.7174 26.8178 27.6166 28.6362C24.0712 31.705 20.5884 33.7417 20.4418 33.8269C20.3076 33.9049 20.1552 33.946 20 33.946Z" fill="#1E262F"/>
</svg>
