<svg width="40" height="40" viewBox="0 0 40 40" fill="none" xmlns="http://www.w3.org/2000/svg">
<path d="M31.8204 27.3241C31.7404 27.1704 31.6185 27.0425 31.4689 26.9552C31.3192 26.868 31.1479 26.8249 30.9747 26.831C28.6479 26.9137 26.3454 26.3344 24.3347 25.1604C22.324 23.9865 20.6877 22.2661 19.6159 20.1992C18.5441 18.1323 18.0807 15.8037 18.2797 13.4839C18.4787 11.1641 19.3319 8.94843 20.74 7.09424C20.8448 6.95621 20.9082 6.79133 20.923 6.6187C20.9379 6.44608 20.9035 6.27279 20.8238 6.11892C20.7442 5.96505 20.6226 5.83691 20.4731 5.74935C20.3236 5.66178 20.1523 5.61838 19.9791 5.62418C17.8834 5.69227 15.83 6.23208 13.9718 7.20346C10.6452 8.93023 8.14051 11.9075 7.00857 15.4805C5.87663 19.0536 6.21008 22.9299 7.93558 26.2572C9.66108 29.5844 12.6374 32.0902 16.21 33.2235C19.7826 34.3568 23.6591 34.0248 26.987 32.3006C28.8517 31.3411 30.4761 29.9734 31.7391 28.2993C31.8434 28.161 31.9064 27.996 31.9208 27.8235C31.9351 27.6509 31.9003 27.4777 31.8204 27.3241Z" fill="#1E262F"/>
</svg>
