<svg width="25" height="25" viewBox="0 0 25 25" fill="none" xmlns="http://www.w3.org/2000/svg">
<g clip-path="url(#clip0_1601_685)">
<path d="M24.5001 9.62024C24.443 9.45416 24.2408 9.32499 24.072 9.32499H21.879C21.7102 9.32499 21.508 9.45416 21.4509 9.62024C21.395 9.78279 21.3533 9.92784 21.3256 10.0642L19.8607 6.01156C19.6191 5.34327 18.9792 4.89429 18.2687 4.89429H7.06478C6.35417 4.89429 5.71441 5.34327 5.47268 6.01168L4.00774 10.0647C3.97995 9.9282 3.93823 9.78298 3.88234 9.62024C3.8253 9.45416 3.62303 9.32499 3.45427 9.32499H1.26127C1.09251 9.32499 0.890246 9.45416 0.833203 9.62024C0.611111 10.2669 0.611233 10.637 0.833263 11.2837C0.890307 11.4498 1.09257 11.579 1.26133 11.579H3.45433C3.4564 11.579 3.45859 11.5784 3.46072 11.5784L3.42764 11.67C2.98047 11.8186 2.65761 12.2395 2.65761 12.7366V20.1654C2.65761 20.2364 2.67158 20.3067 2.69874 20.3722C2.72589 20.4378 2.7657 20.4974 2.81589 20.5476C2.86608 20.5978 2.92566 20.6376 2.99123 20.6647C3.05681 20.6919 3.12709 20.7059 3.19806 20.7058H5.91808C6.06142 20.7058 6.19888 20.6489 6.30024 20.5476C6.40159 20.4462 6.45853 20.3087 6.45853 20.1654V17.5345H18.8749V20.1654C18.8749 20.3087 18.9318 20.4462 19.0332 20.5476C19.1345 20.6489 19.272 20.7058 19.4153 20.7058H22.1353C22.2063 20.7059 22.2766 20.6919 22.3422 20.6647C22.4077 20.6376 22.4673 20.5978 22.5175 20.5476C22.5677 20.4974 22.6075 20.4378 22.6347 20.3722C22.6618 20.3067 22.6758 20.2364 22.6758 20.1654V12.7366C22.6758 12.2397 22.353 11.8188 21.9061 11.6701L21.8729 11.5784C21.8749 11.5784 21.8771 11.5789 21.8791 11.5789H24.0721C24.2409 11.5789 24.4431 11.4498 24.5001 11.2837C24.7222 10.637 24.722 10.2669 24.5001 9.62024ZM7.27173 6.88314H18.0602L19.7696 11.6121H5.56244L7.27173 6.88314ZM7.57264 14.9436H5.29711C4.8089 14.9436 4.41318 14.5479 4.41318 14.0596C4.41318 13.5715 4.80884 13.1757 5.29711 13.1757H7.57264C8.06079 13.1757 8.45656 13.5714 8.45656 14.0596C8.45663 14.5479 8.06079 14.9436 7.57264 14.9436ZM20.0361 14.9436H17.7606C17.2724 14.9436 16.8766 14.5479 16.8766 14.0596C16.8766 13.5715 17.2724 13.1757 17.7606 13.1757H20.0361C20.5243 13.1757 20.92 13.5714 20.92 14.0596C20.92 14.5479 20.5243 14.9436 20.0361 14.9436Z" fill="white"/>
</g>
<defs>
<clipPath id="clip0_1601_685">
<rect width="24" height="24" fill="white" transform="translate(0.666626 0.800049)"/>
</clipPath>
</defs>
</svg>
