<svg width="25" height="25" viewBox="0 0 25 25" fill="none" xmlns="http://www.w3.org/2000/svg">
<g clip-path="url(#clip0_1601_670)">
<path d="M23.9364 7.12741L23.7003 5.78837C23.5096 4.70949 22.3549 4.01114 21.1205 4.22866L5.06022 7.06076H23.2526C23.4873 7.06076 23.7158 7.08441 23.9364 7.12741ZM23.2526 8.73341H2.41428C1.54254 8.73341 0.833313 9.3063 0.833313 10.0102V20.1341C0.833313 20.8381 1.54254 21.411 2.41428 21.411H23.2526C24.1241 21.411 24.8333 20.8381 24.8333 20.1341V10.0102C24.8332 9.30605 24.1241 8.73341 23.2526 8.73341ZM8.26615 20.1107H6.5935V18.6712H8.26615V20.1107ZM8.26615 17.2315H6.5935V15.7919H8.26615V17.2315ZM8.26615 14.3523H6.5935V12.9126H8.26615V14.3523ZM8.26615 11.4731H6.5935V10.0334H8.26615V11.4731ZM20.5559 13.2062L19.2688 14.4103L20.4285 18.2839L19.7789 18.9335C19.7447 18.9676 19.6983 18.9868 19.6499 18.9868C19.6015 18.9868 19.5551 18.9676 19.5208 18.9335L17.7921 15.7917L16.2022 17.3598L16.4554 18.5957L16.0508 19.0005C16.0381 19.0133 16.023 19.0234 16.0063 19.0303C15.9896 19.0373 15.9718 19.0408 15.9537 19.0409C15.9357 19.0409 15.9178 19.0374 15.9012 19.0305C15.8845 19.0236 15.8693 19.0135 15.8566 19.0008L13.5664 16.7106C13.5536 16.6978 13.5435 16.6827 13.5366 16.666C13.5296 16.6493 13.5261 16.6315 13.5261 16.6134C13.5261 16.5954 13.5296 16.5775 13.5366 16.5609C13.5435 16.5442 13.5536 16.5291 13.5664 16.5163L13.9709 16.1112L15.1841 16.3587L16.7533 14.7627L13.6335 13.0454C13.5993 13.0113 13.5801 12.965 13.58 12.9167C13.5799 12.8684 13.5989 12.8221 13.633 12.7878L14.2832 12.1383L18.1312 13.2901L19.3439 11.9939C19.6982 11.6395 20.2569 11.6239 20.5915 11.9587C20.9256 12.2932 20.9097 12.8519 20.5559 13.2062Z" fill="white"/>
</g>
<defs>
<clipPath id="clip0_1601_670">
<rect width="24" height="24" fill="white" transform="translate(0.833313 0.800049)"/>
</clipPath>
</defs>
</svg>
