<svg width="25" height="25" viewBox="0 0 25 25" fill="none" xmlns="http://www.w3.org/2000/svg">
<g clip-path="url(#clip0_1601_675)">
<path d="M21.8344 8.36157H9.4211C8.81462 8.36157 7.80219 8.59145 7.80219 10.1517V12.5385H23.4533V10.1517C23.4533 8.59634 22.4409 8.36157 21.8344 8.36157Z" fill="white"/>
<path d="M4.42739 13.0569H2.06505V4.71289H0.499939V20.8873H2.06505V16.7104H22.9348V20.8824H24.4999V13.0569H4.42739Z" fill="white"/>
<path d="M4.67192 12.6362C5.87936 12.6362 6.85819 11.6574 6.85819 10.4499C6.85819 9.2425 5.87936 8.26367 4.67192 8.26367C3.46448 8.26367 2.48566 9.2425 2.48566 10.4499C2.48566 11.6574 3.46448 12.6362 4.67192 12.6362Z" fill="white"/>
</g>
<defs>
<clipPath id="clip0_1601_675">
<rect width="24" height="24" fill="white" transform="translate(0.499939 0.800049)"/>
</clipPath>
</defs>
</svg>
