<svg width="16" height="16" viewBox="0 0 16 16" fill="none" xmlns="http://www.w3.org/2000/svg">
<path d="M7.80979 0.585409C7.86966 0.401147 8.13034 0.401148 8.19021 0.58541L9.75121 5.38967C9.77798 5.47207 9.85478 5.52786 9.94142 5.52786H14.9929C15.1867 5.52786 15.2672 5.77579 15.1105 5.88967L11.0237 8.85886C10.9536 8.90979 10.9243 9.00006 10.9511 9.08247L12.5121 13.8867C12.5719 14.071 12.361 14.2242 12.2043 14.1103L8.11756 11.1411C8.04746 11.0902 7.95254 11.0902 7.88244 11.1411L3.7957 14.1103C3.63895 14.2242 3.42806 14.071 3.48793 13.8867L5.04893 9.08247C5.0757 9.00006 5.04637 8.90979 4.97627 8.85886L0.889527 5.88967C0.732784 5.77579 0.81334 5.52786 1.00708 5.52786H6.05858C6.14523 5.52786 6.22202 5.47207 6.24879 5.38967L7.80979 0.585409Z" fill="#EBBC15"/>
</svg>
