<svg width="32" height="32" viewBox="0 0 32 32" fill="none" xmlns="http://www.w3.org/2000/svg">
<path d="M30.8041 8.43648L30.4893 6.6511C30.235 5.21258 28.6955 4.28145 27.0496 4.57148L5.63587 8.34761H29.8924C30.2053 8.34761 30.51 8.37914 30.8041 8.43648ZM29.8924 10.5778H2.10795C0.945635 10.5778 0 11.3417 0 12.2802V25.7788C0 26.7173 0.945635 27.4812 2.10795 27.4812H29.8924C31.0544 27.4812 32 26.7173 32 25.7788V12.2802C31.9998 11.3413 31.0544 10.5778 29.8924 10.5778ZM9.91045 25.7476H7.68025V23.8282H9.91045V25.7476ZM9.91045 21.9086H7.68025V19.9891H9.91045V21.9086ZM9.91045 18.0697H7.68025V16.1501H9.91045V18.0697ZM9.91045 14.2307H7.68025V12.3111H9.91045V14.2307ZM26.2968 16.5415L24.5806 18.1469L26.1269 23.3118L25.2608 24.1779C25.2151 24.2234 25.1533 24.249 25.0888 24.249C25.0242 24.249 24.9624 24.2234 24.9167 24.1779L22.6118 19.9888L20.4918 22.0797L20.8294 23.7275L20.29 24.2673C20.273 24.2843 20.2529 24.2978 20.2306 24.307C20.2084 24.3163 20.1846 24.321 20.1606 24.3211C20.1365 24.3211 20.1127 24.3164 20.0905 24.3072C20.0682 24.2981 20.048 24.2846 20.031 24.2676L16.9774 21.214C16.9604 21.197 16.9469 21.1768 16.9377 21.1546C16.9284 21.1324 16.9237 21.1086 16.9237 21.0845C16.9237 21.0605 16.9284 21.0366 16.9377 21.0144C16.9469 20.9922 16.9604 20.972 16.9774 20.955L17.5168 20.4149L19.1344 20.7449L21.2267 18.6169L17.067 16.3272C17.0213 16.2817 16.9957 16.22 16.9955 16.1556C16.9954 16.0912 17.0208 16.0293 17.0663 15.9837L17.9332 15.1176L23.0638 16.6535L24.6808 14.9251C25.1532 14.4526 25.8981 14.4318 26.3442 14.8782C26.7897 15.3242 26.7685 16.0692 26.2968 16.5415Z" fill="#1E262F"/>
</svg>
