<svg width="32" height="33" viewBox="0 0 32 33" fill="none" xmlns="http://www.w3.org/2000/svg">
<path d="M31.7779 12.2603C31.7018 12.0388 31.4322 11.8666 31.2071 11.8666H28.2831C28.0581 11.8666 27.7884 12.0388 27.7123 12.2603C27.6379 12.477 27.5822 12.6704 27.5453 12.8523L25.5921 7.44868C25.2699 6.55763 24.4168 5.95898 23.4694 5.95898H8.53085C7.58338 5.95898 6.73036 6.55763 6.40805 7.44884L4.4548 12.8529C4.41774 12.6709 4.36212 12.4772 4.2876 12.2603C4.21154 12.0388 3.94185 11.8666 3.71684 11.8666H0.792839C0.567828 11.8666 0.298139 12.0388 0.222082 12.2603C-0.0740404 13.1224 -0.0738783 13.616 0.222163 14.4783C0.29822 14.6997 0.567909 14.8719 0.79292 14.8719H3.71692C3.71968 14.8719 3.7226 14.8712 3.72544 14.8711L3.68133 14.9933C3.08511 15.1914 2.65463 15.7527 2.65463 16.4155V26.3205C2.65462 26.4151 2.67325 26.5088 2.70946 26.5962C2.74567 26.6837 2.79875 26.7631 2.86567 26.83C2.93258 26.8969 3.01202 26.95 3.09946 26.9862C3.18689 27.0224 3.2806 27.0411 3.37523 27.0411H7.00192C7.19303 27.0411 7.37632 26.9651 7.51146 26.83C7.6466 26.6949 7.72252 26.5116 7.72252 26.3205V22.8126H24.2776V26.3205C24.2776 26.5116 24.3535 26.6949 24.4887 26.83C24.6238 26.9651 24.8071 27.0411 24.9982 27.0411H28.6249C28.7195 27.0411 28.8133 27.0224 28.9007 26.9862C28.9881 26.95 29.0676 26.8969 29.1345 26.83C29.2014 26.7631 29.2545 26.6837 29.2907 26.5962C29.3269 26.5088 29.3455 26.4151 29.3455 26.3205V16.4155C29.3455 15.7528 28.9152 15.1916 28.3192 14.9934L28.275 14.8711C28.2777 14.8712 28.2805 14.8718 28.2832 14.8718H31.2072C31.4323 14.8718 31.7019 14.6996 31.778 14.4782C32.074 13.616 32.0739 13.1224 31.7779 12.2603ZM8.80679 8.61079H23.1914L25.4706 14.9161H6.52773L8.80679 8.61079ZM9.20799 19.358H6.17396C5.52301 19.358 4.99539 18.8304 4.99539 18.1795C4.99539 17.5286 5.52293 17.0009 6.17396 17.0009H9.20799C9.85886 17.0009 10.3866 17.5285 10.3866 18.1795C10.3866 18.8304 9.85886 19.358 9.20799 19.358ZM25.8259 19.358H22.7919C22.141 19.358 21.6133 18.8304 21.6133 18.1795C21.6133 17.5286 22.141 17.0009 22.7919 17.0009H25.8259C26.4769 17.0009 27.0045 17.5285 27.0045 18.1795C27.0045 18.8304 26.4769 19.358 25.8259 19.358Z" fill="#1E262F"/>
</svg>
